
        <svg xmlns="http://www.w3.org/2000/svg" xmlns:xlink="http://www.w3.org/1999/xlink" version="1.1" width="3162.1621621621625" 
        height="728.6301210618919" viewBox="0 0 3162.1621621621625 728.6301210618919">
			
			<g transform="scale(8.108108108108109) translate(10, 10)">
				<defs id="SvgjsDefs1001"></defs><g id="SvgjsG1007" featureKey="hmhgWD-0" transform="matrix(0.7252458276216357,0,0,0.7252458276216357,-1.2075342753240907,-1.3141456388451198)" fill="#ff471f"><g xmlns="http://www.w3.org/2000/svg"><polygon fill="#ff471f" points="48.901,50.518 48.657,51.93 49.925,51.263 51.193,51.93 50.951,50.518 51.977,49.518    50.561,49.312 49.925,48.028 49.291,49.312 47.875,49.518  "></polygon><path fill="#ff471f" d="M98.184,49.973l-10.579-2.897c-0.579-7.582-3.429-15.062-8.69-21.331   c-6.783-8.083-16.239-12.577-25.99-13.324l-2.91-10.609l-2.902,10.597c-7.574,0.582-15.046,3.434-21.31,8.689   c-8.065,6.768-12.565,16.194-13.331,25.92L1.665,49.982l10.841,2.969c0.589,7.56,3.405,15.013,8.649,21.261   c6.776,8.074,16.216,12.576,25.957,13.334l2.908,10.598l2.914-10.638c7.581-0.575,15.064-3.386,21.335-8.646   c8.081-6.783,12.569-16.232,13.318-25.98L98.184,49.973z M78.274,49.25c-0.036-1.383-0.173-2.738-0.399-4.065l14.835,4.063   L78.274,49.25z M69.628,30.91l-9.23,8.714l-0.014-0.003l-0.933-3.394l10.081-5.422C69.566,30.838,69.596,30.875,69.628,30.91z    M71.153,32.588c2.71,3.285,4.654,7.216,5.6,11.515l-10.734-2.94L71.153,32.588z M59.276,35.583l-3.381-12.325   c5.042,1.105,9.563,3.604,13.148,7.072L59.276,35.583z M52.777,49.977c0,1.515-1.229,2.746-2.742,2.746   c-1.515,0-2.745-1.23-2.745-2.746c0-1.512,1.23-2.744,2.745-2.744C51.549,47.233,52.777,48.465,52.777,49.977z M49.209,36.918   v9.691c0.005-0.008,0.037-0.002,0.051-0.006c-0.646,0.148-1.224,0.468-1.676,0.92l-7.183-8.19l4.441-16.215   c1.419-0.274,2.879-0.421,4.364-0.467L49.209,36.918z M41.232,33.875l-8.491-5.085c3.26-2.666,7.145-4.583,11.396-5.522   L41.232,33.875z M39.692,39.495l-0.017,0.062l-3.361,0.921l-5.403-10.043c0.04-0.038,0.083-0.073,0.124-0.112L39.692,39.495z    M35.671,40.656L23.334,44.04c1.119-5.034,3.625-9.548,7.1-13.122L35.671,40.656z M36.917,50.702h9.727c-0.002,0,0-0.003,0-0.004   c0.13,0.617,0.43,1.166,0.84,1.615c-0.007-0.005-0.029-0.015-0.033-0.021l-8.102,7.285l-16.18-4.43   c-0.276-1.444-0.428-2.928-0.468-4.441L36.917,50.702z M33.962,58.827l-5.083,8.487c-2.674-3.255-4.598-7.145-5.544-11.397   L33.962,58.827z M30.414,69.013l9.161-8.648l0.087,0.025l0.915,3.336l-10.054,5.408C30.485,69.096,30.451,69.053,30.414,69.013z    M40.753,64.368l3.379,12.316c-5.033-1.113-9.545-3.608-13.122-7.074L40.753,64.368z M50.647,62.989v-9.598   c-0.005,0.003-0.034-0.003-0.044-0.001c0.678-0.114,1.288-0.42,1.776-0.867c-0.006,0.004-0.014,0.023-0.02,0.027l7.109,8.018   l-4.464,16.299c-1.417,0.262-2.871,0.411-4.354,0.445L50.647,62.989z M58.828,65.97l8.58,5.139   c-3.285,2.704-7.216,4.646-11.516,5.587L58.828,65.97z M60.363,60.369l0.005-0.022l3.37-0.926l5.43,10.092   c-0.029,0.027-0.062,0.055-0.092,0.083L60.363,60.369z M64.381,59.244l12.372-3.394c-1.11,5.058-3.622,9.592-7.109,13.179   L64.381,59.244z M62.938,49.254l-9.498,0.061c0,0.002-0.002,0.021,0,0.027c-0.124-0.669-0.441-1.265-0.888-1.741   c0.002,0.004,0.017,0.01,0.019,0.013l7.949-7.181l16.398,4.491c0.263,1.407,0.411,2.854,0.45,4.327L62.938,49.254z M80.175,28.638   c3.914,5.522,6.076,11.825,6.609,18.213l-0.517-0.143c-0.555-6.213-2.691-12.341-6.502-17.727L80.175,28.638z M85.499,46.499   l-7.747-2.122c-0.954-4.744-3.1-9.052-6.104-12.614l2.503-4.18l-4.249,2.285c-3.846-3.798-8.771-6.503-14.279-7.608l-2.124-7.748   c8.972,0.87,17.622,5.099,23.861,12.536C82.162,32.769,84.83,39.571,85.499,46.499z M76.282,24.001l-0.409,0.341   c-6.221-6.284-14.272-9.831-22.578-10.567l-0.146-0.53C61.66,13.958,69.923,17.569,76.282,24.001z M49.206,21.745   c-1.395,0.04-2.764,0.18-4.101,0.415l4.099-14.962L49.206,21.745z M46.89,13.215l-0.146,0.533   c-6.208,0.558-12.328,2.69-17.706,6.496l-0.342-0.407C34.213,15.926,40.509,13.752,46.89,13.215z M27.104,22.651   c5.716-4.796,12.509-7.458,19.428-8.13l-2.121,7.744c-4.697,0.948-8.967,3.062-12.506,6.023l-4.257-2.55l2.324,4.32   c-3.809,3.835-6.528,8.755-7.646,14.258L14.58,46.44C15.465,37.493,19.689,28.874,27.104,22.651z M24.057,23.729l0.343,0.408   c-6.267,6.204-9.813,14.227-10.563,22.507l-0.539,0.147C14.027,38.305,17.642,30.07,24.057,23.729z M21.794,50.705   c0.036,1.42,0.178,2.816,0.416,4.178L6.966,50.708L21.794,50.705z M19.242,70.374c-3.498-5.272-5.45-11.203-5.959-17.21   l0.538,0.146c0.531,5.832,2.435,11.587,5.832,16.721L19.242,70.374z M14.588,53.522l7.737,2.118   c0.956,4.699,3.083,8.968,6.054,12.506l-2.541,4.244l4.31-2.318c3.839,3.8,8.758,6.508,14.258,7.618l2.13,7.76   c-8.961-0.881-17.599-5.112-23.831-12.54C17.92,67.206,15.267,60.428,14.588,53.522z M22.986,75.14l0.408-0.345   c6.316,6.789,14.694,10.63,23.35,11.408l0.146,0.532C38.026,85.982,29.435,82.078,22.986,75.14z M50.651,78.223   c1.392-0.029,2.755-0.166,4.09-0.392l-4.087,14.926L50.651,78.223z M53.157,86.683l0.144-0.521   c6.21-0.549,12.334-2.634,17.717-6.438l0.341,0.406C65.841,84.037,59.54,86.154,53.157,86.683z M72.964,77.306   c-5.725,4.802-12.529,7.438-19.457,8.102l2.11-7.71c4.746-0.949,9.056-3.092,12.619-6.094l4.118,2.466l-2.248-4.181   c3.818-3.851,6.535-8.788,7.646-14.312l7.747-2.124C84.625,62.423,80.396,71.069,72.964,77.306z M75.999,76.237l-0.342-0.406   c6.289-6.221,9.843-14.273,10.582-22.582l0.531-0.146C86.056,61.617,82.437,69.881,75.999,76.237z"></path><circle fill="#ff471f" cx="33.375" cy="24.633" r="0.919"></circle><circle fill="#ff471f" cx="75.473" cy="33.363" r="0.919"></circle><path fill="#ff471f" d="M66.447,74.248c-0.508,0-0.918,0.411-0.918,0.92c0,0.506,0.41,0.919,0.918,0.919   c0.51,0,0.92-0.413,0.92-0.919C67.367,74.659,66.957,74.248,66.447,74.248z"></path><circle fill="#ff471f" cx="24.448" cy="66.242" r="0.919"></circle><circle fill="#ff471f" cx="32.217" cy="74.029" r="0.919"></circle><path fill="#ff471f" d="M73.333,68.316c-0.506,0-0.917,0.413-0.917,0.922c0,0.506,0.411,0.917,0.917,0.917   c0.51,0,0.92-0.411,0.92-0.917C74.253,68.729,73.843,68.316,73.333,68.316z"></path><path fill="#ff471f" d="M68.514,24.907c-0.507,0-0.918,0.412-0.918,0.919c0,0.507,0.411,0.919,0.918,0.919   c0.51,0,0.921-0.412,0.921-0.919C69.435,25.318,69.023,24.907,68.514,24.907z"></path><circle fill="#ff471f" cx="25.82" cy="31.183" r="0.919"></circle></g></g><g id="SvgjsG1008" featureKey="1RRcwp-0" transform="matrix(3.2043946990287586,0,0,3.2043946990287586,86.79560606495848,-14.047378820929339)" fill="#1017c8"><path d="M5.78 10.66 c1.26 0 2.46 0.48 3.38 1.38 c0.9 0.92 1.4 2.12 1.4 3.38 s-0.5 2.46 -1.4 3.38 c-0.9 0.9 -2.1 1.38 -3.38 1.38 c-0.84 0 -1.6 -0.3 -2.26 -0.9 l-0.1 -0.08 l0 6.12 l-2.42 0 l0 -14.48 l2.42 0 l0 0.72 l0.1 -0.1 c0.72 -0.7 1.54 -0.8 2.26 -0.8 z M5.78 17.84 c1.28 0 2.36 -1.12 2.36 -2.42 c0 -1.32 -1.08 -2.42 -2.36 -2.42 s-2.36 1.1 -2.36 2.42 c0 1.3 1.08 2.42 2.36 2.42 z M16.62 20.22 c-1.24 0 -2.46 -0.5 -3.4 -1.4 c-0.9 -0.94 -1.4 -2.16 -1.4 -3.4 c0 -1.26 0.5 -2.48 1.4 -3.4 c0.92 -0.88 2.12 -1.38 3.4 -1.38 c1.32 0 2.52 0.5 3.38 1.38 c0.92 0.92 1.42 2.12 1.42 3.4 s-0.5 2.48 -1.42 3.4 c-0.9 0.9 -2.1 1.4 -3.38 1.4 z M16.62 12.92 c-1.34 0 -2.44 1.12 -2.44 2.5 s1.1 2.5 2.44 2.5 c1.36 0 2.46 -1.12 2.46 -2.5 s-1.1 -2.5 -2.46 -2.5 z M25.82 20 l-2.6 0 l0 -14.68 l2.6 0 l0 14.68 z M31.72 25.32 l-2.62 0 l2.18 -5.3 l-3.66 -9.18 l2.68 0 l2.28 5.7 l2.32 -5.7 l2.66 0 z M47.9 20 l-2.52 0 l0 -4.9 c0 -1.08 -0.86 -1.92 -1.94 -1.92 c-1.04 0 -1.94 0.86 -1.94 1.92 l0 4.9 l-2.5 0 l0 -14.68 l2.5 0 l0 6.18 c0.62 -0.62 1.28 -0.84 1.94 -0.84 c1.2 0 2.32 0.46 3.16 1.28 c0.84 0.86 1.3 1.98 1.3 3.16 l0 4.9 z M52.980000000000004 20 l-2.6 0 l0 -9.16 l2.6 0 l0 9.16 z M51.68 9.74 c-0.86 0 -1.56 -0.7 -1.56 -1.54 c0 -0.42 0.16 -0.8 0.46 -1.08 c0.3 -0.3 0.68 -0.46 1.1 -0.46 c0.84 0 1.54 0.7 1.54 1.54 s-0.7 1.54 -1.54 1.54 z M59.120000000000005 20.08 c-0.28 0 -0.58 -0.04 -0.94 -0.1 c-1 -0.2 -1.94 -0.64 -2.68 -1.3 l-0.3 -0.24 l1.5 -1.66 l0.28 0.26 c0.88 0.74 1.6 0.88 2.06 0.88 c0.34 0 0.58 -0.04 0.82 -0.16 c0.3 -0.12 0.44 -0.32 0.44 -0.6 c0 -0.24 -0.14 -0.54 -1.32 -0.74 c-1.08 -0.22 -1.76 -0.44 -2.08 -0.62 c-0.42 -0.24 -0.76 -0.56 -1 -0.96 s-0.36 -0.84 -0.36 -1.34 c0 -0.52 0.16 -1.02 0.48 -1.48 c0.26 -0.38 0.64 -0.68 1.2 -0.96 c0.46 -0.22 0.98 -0.32 1.6 -0.32 c0.22 0 0.44 0.02 0.64 0.04 c0.88 0.14 1.76 0.52 2.48 1.08 l0.3 0.24 l-1.42 1.64 l-0.28 -0.22 c-0.7 -0.56 -1.3 -0.66 -1.66 -0.66 c-0.26 0 -0.5 0.04 -0.72 0.14 c-0.26 0.14 -0.4 0.36 -0.4 0.5 c0 0.28 0.2 0.48 1.24 0.72 c1.36 0.32 1.8 0.48 2.08 0.6 c0.56 0.32 0.8 0.58 1 0.84 c0.3 0.42 0.44 0.94 0.44 1.5 c0 0.58 -0.16 1.1 -0.46 1.52 s-0.7 0.78 -1.28 1.06 c-0.46 0.22 -1.06 0.34 -1.66 0.34 z M70.58 20 l-2.4 0 c-0.88 0 -1.7 -0.34 -2.3 -0.94 c-0.62 -0.62 -0.94 -1.42 -0.94 -2.3 l0 -3.8 l-1.28 0 l0 -2.06 l1.28 0 l0 -3.6 l2.38 0 l0 3.6 l2.66 0 l0 2.06 l-2.66 0 l0 3.76 c0 0.5 0.44 0.96 0.88 0.96 l1.74 0 z M76.12 20.22 c-1.24 0 -2.46 -0.5 -3.4 -1.4 c-0.9 -0.94 -1.4 -2.16 -1.4 -3.4 c0 -1.26 0.5 -2.48 1.4 -3.4 c0.92 -0.88 2.12 -1.38 3.4 -1.38 c1.32 0 2.52 0.5 3.38 1.38 c0.92 0.92 1.42 2.12 1.42 3.4 s-0.5 2.48 -1.42 3.4 c-0.9 0.9 -2.1 1.4 -3.38 1.4 z M76.12 12.92 c-1.34 0 -2.44 1.12 -2.44 2.5 s1.1 2.5 2.44 2.5 c1.36 0 2.46 -1.12 2.46 -2.5 s-1.1 -2.5 -2.46 -2.5 z M85.25999999999999 20 l-2.52 0 l0 -9.16 l2.52 0 l0 0.74 c0.72 -0.72 1.8 -0.96 2.52 -0.96 l0.6 0 l-0.6 2.5 l-0.38 0 c-1.18 0 -2.14 0.92 -2.14 2.02 l0 4.86 z"></path></g>
			</g>
		</svg>
	